<svg data-v-423bf9ae="" xmlns="http://www.w3.org/2000/svg" viewBox="0 0 519 90" class="iconLeft"><!----><!----><!----><g data-v-423bf9ae="" id="5e64b050-6378-4d45-bf66-8985bda79889" fill="black" transform="matrix(6.061562538146973,0,0,6.061562538146973,125.48905944824219,12.205999374389648)"><path d="M12.40 10.22L11.20 0.57L10.35 0.57L6.64 8.23L2.93 0.57L2.06 0.57L0.87 10.22L1.76 10.22L2.76 2.20L6.22 9.23L7.07 9.23L10.50 2.23L11.49 10.22ZM20.48 6.93C20.48 4.86 19.12 3.54 17.26 3.54C15.41 3.54 13.93 4.86 13.93 6.93C13.93 9.00 15.41 10.36 17.26 10.36C18.49 10.36 19.61 9.77 20.19 8.72L19.42 8.39C18.98 9.10 18.19 9.51 17.29 9.51C15.97 9.51 14.99 8.72 14.84 7.32L20.47 7.32C20.48 7.20 20.48 7.06 20.48 6.93ZM14.85 6.55C15.02 5.15 15.97 4.40 17.26 4.40C18.54 4.40 19.47 5.19 19.60 6.55ZM30.07 3.54C29.27 3.54 28.14 3.81 27.66 5.11C27.30 4.10 26.43 3.54 25.37 3.54C24.40 3.54 23.46 3.99 23.13 4.86L23.13 3.68L22.23 3.68L22.23 10.22L23.13 10.22L23.13 6.59C23.16 5.03 24.16 4.41 25.21 4.41C26.25 4.41 27.01 5.18 27.01 6.45L27.01 10.22L27.89 10.22L27.89 6.83L27.90 6.89C27.80 5.29 28.70 4.40 29.93 4.41C31.01 4.41 31.77 5.19 31.77 6.45L31.77 10.22L32.66 10.22L32.66 6.41C32.66 4.61 31.65 3.54 30.07 3.54ZM37.79 10.36C39.65 10.36 41.22 9.00 41.22 6.93C41.22 4.86 39.65 3.54 37.79 3.54C35.92 3.54 34.37 4.86 34.37 6.93C34.37 9.00 35.92 10.36 37.79 10.36ZM37.79 9.51C36.40 9.51 35.27 8.48 35.27 6.93C35.27 5.39 36.40 4.40 37.79 4.40C39.16 4.40 40.32 5.39 40.32 6.93C40.32 8.48 39.16 9.51 37.79 9.51ZM47.49 10.36C50.11 10.36 51.95 8.81 52.00 5.54L48.09 5.54L48.09 6.37L50.99 6.37L50.97 6.58C50.72 8.46 49.31 9.49 47.49 9.49C45.26 9.49 43.54 7.66 43.54 5.42C43.54 3.18 45.26 1.33 47.49 1.33C48.41 1.33 49.28 1.68 49.94 2.21L50.55 1.58C49.74 0.90 48.66 0.46 47.49 0.46C44.74 0.46 42.62 2.67 42.62 5.42C42.62 8.15 44.74 10.36 47.49 10.36ZM56.53 3.54C55.51 3.54 54.81 4.17 54.49 5.28L54.49 3.68L53.58 3.68L53.58 10.22L54.49 10.22L54.49 7.76C54.49 6.15 54.96 4.41 56.52 4.41C56.76 4.41 57.06 4.45 57.40 4.59L57.57 3.74C57.32 3.61 56.90 3.54 56.53 3.54ZM63.97 3.68L63.97 4.94C63.48 4.06 62.47 3.54 61.36 3.54C59.53 3.54 58.04 4.96 58.04 6.94C58.04 8.93 59.54 10.36 61.36 10.36C62.45 10.36 63.48 9.84 63.97 8.95L63.97 10.22L64.86 10.22L64.86 3.68ZM61.43 9.51C60.06 9.51 58.94 8.39 58.94 6.93C58.94 5.49 60.06 4.40 61.43 4.40C62.73 4.40 63.97 5.39 63.97 6.97C63.97 8.48 62.79 9.51 61.43 9.51Z"></path></g><!----><g data-v-423bf9ae="" id="145e8f9e-c947-44cf-b677-8b367de7879f" transform="matrix(3.461538553237915,0,0,3.461538553237915,0.6153831481933594,-10.38461685180664)" stroke="none" fill="black"><path d="M0 29h32V3H0v26zM1 4h30v24H1V4z"></path><path d="M9.755 17a4.5 4.5 0 1 0 0 9 4.5 4.5 0 0 0 0-9zm1.882 5.675l-.707.707-1.175-1.175-1.175 1.175-.707-.707L9.048 21.5l-1.175-1.175.707-.707 1.175 1.175 1.175-1.175.707.707-1.175 1.175 1.175 1.175zM22.245 6a4.5 4.5 0 1 0 0 9 4.5 4.5 0 0 0 0-9zm1.882 5.675l-.707.707-1.175-1.175-1.175 1.175-.707-.707 1.175-1.175-1.175-1.175.707-.707 1.175 1.175 1.175-1.175.707.707-1.175 1.175 1.175 1.175zM22.245 17a4.5 4.5 0 1 0 0 9 4.5 4.5 0 0 0 0-9zm1.882 5.675l-.707.707-1.175-1.175-1.175 1.175-.707-.707 1.175-1.175-1.175-1.175.707-.707 1.175 1.175 1.175-1.175.707.707-1.175 1.175 1.175 1.175zM9.755 6a4.5 4.5 0 1 0 0 9 4.5 4.5 0 0 0 0-9zm-.746 6.758L7.411 11.16l.707-.707.852.852 2.404-2.671.744.67-3.109 3.454z"></path></g><!----></svg>